<svg width="200" height="57" viewBox="0 0 200 57" fill="none" xmlns="http://www.w3.org/2000/svg">
<path d="M56.7708 27.1257H53.8518C53.0184 27.1257 52.3427 27.8013 52.3427 28.6347C52.3427 29.4682 53.0184 30.1438 53.8518 30.1438H56.3123C55.8981 35.5611 53.8384 40.7225 50.4081 44.9361C46.9783 49.15 42.3427 52.2149 37.1223 53.72H22.2331C17.0119 52.2149 12.3758 49.1505 8.94597 44.9367C5.51566 40.7228 3.45549 35.5612 3.04127 30.143H28.5908C28.6744 30.1331 28.7565 30.1147 28.8362 30.0888C28.9273 30.1181 29.0209 30.1376 29.116 30.147H43.7911C44.624 30.147 45.2996 29.4714 45.2996 28.638C45.2996 27.8045 44.624 27.1289 43.7911 27.1289H29.8132C28.9822 23.3585 26.4701 20.1761 22.9954 18.4923C19.5207 16.8085 15.4667 16.8085 11.992 18.4923C8.51735 20.1761 6.00561 23.3585 5.17423 27.1289H2.58282C1.88332 27.1274 1.2132 27.4102 0.726836 27.9125C0.239922 28.4149 -0.0219568 29.0935 0.00144379 29.793C0.353434 35.9701 2.62726 41.8827 6.50454 46.7036C10.3825 51.525 15.6703 55.0135 21.6283 56.6809C21.7592 56.7182 21.8946 56.7372 22.031 56.7376H37.3217C37.4577 56.7371 37.5931 56.7182 37.724 56.6809C43.683 55.013 48.9713 51.5234 52.849 46.7011C56.7269 41.8787 59.0002 35.9651 59.3507 29.7866C59.3746 29.0931 59.1167 28.419 58.6368 27.9176C58.1464 27.4133 57.4732 27.1275 56.7693 27.125L56.7708 27.1257ZM17.5046 20.2406C19.5833 20.2351 21.608 20.9023 23.2759 22.1425C24.9443 23.3827 26.1661 25.1297 26.76 27.1216H8.24981C8.84725 25.1317 10.0705 23.3876 11.7379 22.148C13.4047 20.9083 15.4275 20.2396 17.5052 20.2406H17.5046Z" fill="black"/>
<path d="M46.3399 0.184333C45.9884 -0.00734561 45.5747 -0.05166 45.1903 0.0613614C44.8065 0.174875 44.4829 0.436254 44.2917 0.787747L32.0586 23.1216C31.6583 23.8524 31.9262 24.7701 32.6571 25.1708C33.3884 25.5711 34.3061 25.3032 34.7063 24.5723L46.9374 2.23852C47.1316 1.88703 47.1779 1.4728 47.0654 1.08695C46.9534 0.701602 46.6925 0.376491 46.34 0.184315L46.3399 0.184333Z" fill="black"/>
<path d="M40.7115 25.3502C41.0834 25.3497 41.4419 25.2113 41.7177 24.9619L58.8514 9.54374C59.175 9.28434 59.3771 8.90299 59.411 8.48976C59.4448 8.07652 59.3074 7.66778 59.0306 7.3591C58.7538 7.05042 58.362 6.86919 57.9478 6.85824C57.533 6.84679 57.1322 7.00711 56.8395 7.30035L39.7058 22.7223C39.2433 23.1405 39.085 23.7997 39.308 24.3822C39.5306 24.9647 40.0882 25.3505 40.7115 25.354L40.7115 25.3502Z" fill="black"/>
<path d="M82.695 24.2552L76.1702 36.8226V43.9715H72.9362V36.8226L66.383 24.2552H69.9858L74.5532 33.929L79.1206 24.2552H82.695Z" fill="black"/>
<path d="M99.5878 35.7729C99.5878 36.3592 99.5499 36.8888 99.4743 37.3616H87.531C87.6256 38.6098 88.089 39.6122 88.9211 40.3687C89.7533 41.1252 90.7745 41.5034 91.9849 41.5034C93.7249 41.5034 94.9542 40.7753 95.6729 39.319H99.1622C98.6894 40.7564 97.8289 41.9384 96.5807 42.8651C95.3514 43.7729 93.8194 44.2268 91.9849 44.2268C90.4908 44.2268 89.1481 43.8959 87.9566 43.2339C86.784 42.5531 85.8573 41.6074 85.1764 40.397C84.5145 39.1677 84.1835 37.7493 84.1835 36.1417C84.1835 34.5342 84.505 33.1252 85.1481 31.9148C85.81 30.6855 86.7272 29.7398 87.8998 29.0779C89.0913 28.416 90.453 28.085 91.9849 28.085C93.4601 28.085 94.7745 28.4065 95.9282 29.0495C97.0819 29.6926 97.9802 30.6004 98.6232 31.7729C99.2663 32.9266 99.5878 34.2599 99.5878 35.7729ZM96.2119 34.7517C96.193 33.5602 95.7674 32.6051 94.9353 31.8864C94.1031 31.1677 93.0724 30.8084 91.8431 30.8084C90.7272 30.8084 89.7722 31.1677 88.9778 31.8864C88.1835 32.5862 87.7107 33.5412 87.5594 34.7517H96.2119Z" fill="black"/>
<path d="M108.444 44.2268C107.215 44.2268 106.108 44.0093 105.125 43.5743C104.16 43.1204 103.395 42.5152 102.827 41.7587C102.26 40.9833 101.957 40.1228 101.919 39.1772H105.267C105.324 39.8391 105.636 40.397 106.203 40.8509C106.789 41.2859 107.517 41.5034 108.387 41.5034C109.295 41.5034 109.995 41.3332 110.487 40.9928C110.997 40.6334 111.253 40.1795 111.253 39.6311C111.253 39.0448 110.969 38.6098 110.402 38.3261C109.853 38.0424 108.974 37.7304 107.763 37.39C106.591 37.0684 105.636 36.7564 104.898 36.4538C104.16 36.1512 103.517 35.6878 102.969 35.0637C102.439 34.4396 102.175 33.6169 102.175 32.5956C102.175 31.7635 102.421 31.007 102.912 30.3261C103.404 29.6264 104.104 29.0779 105.012 28.6807C105.938 28.2836 106.997 28.085 108.189 28.085C109.967 28.085 111.395 28.5389 112.473 29.4467C113.569 30.3356 114.156 31.5554 114.231 33.1063H110.997C110.941 32.4065 110.657 31.8486 110.146 31.4325C109.636 31.0164 108.945 30.8084 108.075 30.8084C107.224 30.8084 106.572 30.9691 106.118 31.2907C105.664 31.6122 105.437 32.0377 105.437 32.5673C105.437 32.9833 105.588 33.3332 105.891 33.6169C106.194 33.9006 106.562 34.1275 106.997 34.2978C107.432 34.4491 108.075 34.6476 108.926 34.8935C110.061 35.1961 110.988 35.5082 111.707 35.8297C112.444 36.1323 113.078 36.5862 113.607 37.1914C114.137 37.7966 114.411 38.6004 114.43 39.6027C114.43 40.4916 114.184 41.2859 113.692 41.9857C113.201 42.6855 112.501 43.2339 111.593 43.6311C110.704 44.0282 109.655 44.2268 108.444 44.2268Z" fill="black"/>
<path d="M124.216 34.0708C124.216 32.1417 124.66 30.4112 125.549 28.8793C126.457 27.3474 127.677 26.1559 129.209 25.3048C130.759 24.4349 132.452 23.9999 134.287 23.9999C136.386 23.9999 138.249 24.52 139.875 25.5602C141.521 26.5814 142.712 28.0377 143.45 29.929H139.563C139.053 28.8888 138.343 28.1134 137.436 27.6027C136.528 27.0921 135.478 26.8368 134.287 26.8368C132.982 26.8368 131.818 27.1299 130.797 27.7162C129.776 28.3025 128.972 29.1441 128.386 30.241C127.818 31.3379 127.535 32.6145 127.535 34.0708C127.535 35.5271 127.818 36.8037 128.386 37.9006C128.972 38.9975 129.776 39.8486 130.797 40.4538C131.818 41.0401 132.982 41.3332 134.287 41.3332C135.478 41.3332 136.528 41.0779 137.436 40.5673C138.343 40.0566 139.053 39.2812 139.563 38.241H143.45C142.712 40.1323 141.521 41.5885 139.875 42.6098C138.249 43.6311 136.386 44.1417 134.287 44.1417C132.433 44.1417 130.74 43.7162 129.209 42.8651C127.677 41.9952 126.457 40.7942 125.549 39.2623C124.66 37.7304 124.216 35.9999 124.216 34.0708Z" fill="black"/>
<path d="M155.32 28.085C156.512 28.085 157.571 28.3403 158.498 28.8509C159.443 29.3616 160.181 30.1181 160.71 31.1204C161.259 32.1228 161.533 33.3332 161.533 34.7517V43.9715H158.327V35.2339C158.327 33.8344 157.977 32.7658 157.278 32.0282C156.578 31.2717 155.623 30.8935 154.412 30.8935C153.202 30.8935 152.238 31.2717 151.519 32.0282C150.819 32.7658 150.469 33.8344 150.469 35.2339V43.9715H147.235V22.9786H150.469V30.1559C151.018 29.494 151.708 28.9833 152.54 28.624C153.391 28.2647 154.318 28.085 155.32 28.085Z" fill="black"/>
<path d="M179.984 35.7729C179.984 36.3592 179.947 36.8888 179.871 37.3616H167.928C168.022 38.6098 168.486 39.6122 169.318 40.3687C170.15 41.1252 171.171 41.5034 172.382 41.5034C174.122 41.5034 175.351 40.7753 176.07 39.319H179.559C179.086 40.7564 178.226 41.9384 176.977 42.8651C175.748 43.7729 174.216 44.2268 172.382 44.2268C170.888 44.2268 169.545 43.8959 168.353 43.2339C167.181 42.5531 166.254 41.6074 165.573 40.397C164.911 39.1677 164.58 37.7493 164.58 36.1417C164.58 34.5342 164.902 33.1252 165.545 31.9148C166.207 30.6855 167.124 29.7398 168.297 29.0779C169.488 28.416 170.85 28.085 172.382 28.085C173.857 28.085 175.171 28.4065 176.325 29.0495C177.479 29.6926 178.377 30.6004 179.02 31.7729C179.663 32.9266 179.984 34.2599 179.984 35.7729ZM176.609 34.7517C176.59 33.5602 176.164 32.6051 175.332 31.8864C174.5 31.1677 173.469 30.8084 172.24 30.8084C171.124 30.8084 170.169 31.1677 169.375 31.8864C168.58 32.5862 168.107 33.5412 167.956 34.7517H176.609Z" fill="black"/>
<path d="M189.72 30.9786H186.827V43.9715H183.564V30.9786H181.72V28.3403H183.564V27.2339C183.564 25.4372 184.037 24.1323 184.983 23.319C185.947 22.4869 187.451 22.0708 189.493 22.0708V24.7658C188.51 24.7658 187.82 24.955 187.422 25.3332C187.025 25.6926 186.827 26.3261 186.827 27.2339V28.3403H189.72V30.9786Z" fill="black"/>
<path d="M196.643 24.2552L196.274 38.0141H193.579L193.211 24.2552H196.643ZM195.026 44.1701C194.44 44.1701 193.948 43.9715 193.551 43.5743C193.154 43.1772 192.955 42.6855 192.955 42.0992C192.955 41.5129 193.154 41.0212 193.551 40.624C193.948 40.2268 194.44 40.0282 195.026 40.0282C195.594 40.0282 196.076 40.2268 196.473 40.624C196.87 41.0212 197.069 41.5129 197.069 42.0992C197.069 42.6855 196.87 43.1772 196.473 43.5743C196.076 43.9715 195.594 44.1701 195.026 44.1701Z" fill="black"/>
</svg>
