<svg width="24" height="24" viewBox="0 0 24 24" fill="none" xmlns="http://www.w3.org/2000/svg">
<path fill-rule="evenodd" clip-rule="evenodd" d="M14.0147 22.6066L23.5607 13.0606C24.1464 12.4748 24.1464 11.5251 23.5607 10.9393L14.0147 1.39335C13.4289 0.807567 12.4792 0.807567 11.8934 1.39335C11.3076 1.97914 11.3076 2.92889 11.8934 3.51467L18.8787 10.5L1.5 10.5C0.671572 10.5 -5.6374e-07 11.1715 -5.2441e-07 12C-4.8508e-07 12.8284 0.671572 13.5 1.5 13.5L18.8787 13.5L11.8934 20.4852C11.3076 21.071 11.3076 22.0208 11.8934 22.6066C12.4792 23.1923 13.4289 23.1923 14.0147 22.6066Z" fill="white"/>
</svg>
